<svg width="76" height="70" viewBox="0 0 76 70" fill="none" xmlns="http://www.w3.org/2000/svg">
<path d="M55.7559 20.8511C56.1093 21.204 56.5792 21.3984 57.0791 21.3984C57.5789 21.3984 58.0489 21.204 58.4021 20.8514L67.5329 11.7367C67.967 11.3032 67.967 10.6008 67.5329 10.1675C67.0989 9.7344 66.3953 9.7344 65.9611 10.1675L57.0791 19.034L54.1774 16.1372C53.7432 15.7041 53.0395 15.7041 52.6055 16.1372C52.1714 16.5707 52.1714 17.273 52.6055 17.7063L55.7559 20.8511ZM73.2805 56.0667H72.5396V24.8461C73.0136 24.5584 73.4532 24.1942 73.7579 23.6683C74.275 22.7758 74.1888 21.7717 74.1128 20.8855C74.0699 20.3872 74.0258 19.8718 74.1159 19.5346C74.1987 19.2256 74.4859 18.8173 74.7636 18.4223C75.2841 17.6824 75.8739 16.8437 75.8739 15.7773C75.8739 14.7108 75.2841 13.8722 74.7636 13.1323C74.4859 12.7373 74.1986 12.329 74.116 12.0201C74.0258 11.6828 74.0698 11.1673 74.1128 10.669C74.1889 9.78307 74.2752 8.7789 73.7579 7.88628C73.2339 6.98211 72.3121 6.55355 71.4988 6.17573C71.051 5.96745 70.5878 5.7522 70.3498 5.51448C70.1118 5.27705 69.896 4.81461 69.6873 4.36726C69.3087 3.55556 68.8797 2.63542 67.9738 2.11233C67.0799 1.59619 66.0743 1.68214 65.186 1.75803C64.6874 1.80078 64.1708 1.84501 63.8328 1.75492C63.5232 1.67223 63.1142 1.38554 62.7185 1.10831C61.9772 0.588771 61.1372 0 60.0688 0C59.0005 0 58.1604 0.588771 57.4192 1.10831C57.0235 1.38554 56.6145 1.67238 56.3051 1.75477C55.9671 1.84516 55.4506 1.80078 54.9517 1.75803C54.0643 1.68199 53.0584 1.59575 52.164 2.11233C51.2583 2.63542 50.8291 3.55556 50.4505 4.36726C50.2418 4.81446 50.0262 5.2769 49.7882 5.51448C49.4744 5.8278 48.75 6.11715 48.2463 6.36109H8.89147C5.82717 6.36109 3.3343 8.84961 3.3343 11.9086V56.0664H2.59335C1.16345 56.0667 0 57.2281 0 58.6555V63.8331C0 66.8921 2.49287 69.3806 5.55717 69.3806H70.3167C73.381 69.3806 75.8739 66.8921 75.8739 63.8331V58.6555C75.8739 57.2281 74.7104 56.0667 73.2805 56.0667ZM47.1938 14.4077C47.583 13.8545 47.9853 13.2824 48.1697 12.5933C48.3521 11.9117 48.2974 11.1426 48.2404 10.4795C48.1898 9.89254 48.1378 9.28557 48.3047 8.99769C48.5036 8.65464 49.1532 8.38481 49.5778 8.18747C50.1718 7.91143 50.845 7.5987 51.3607 7.08389C51.8762 6.56924 52.1897 5.89718 52.4662 5.30412C52.718 4.76446 52.9783 4.20631 53.2778 4.03338C53.5665 3.86681 54.1742 3.91888 54.7624 3.96917C55.4199 4.02524 56.1653 4.08915 56.8798 3.89861C57.5697 3.71458 58.1428 3.31295 58.697 2.92448C59.1918 2.57757 59.7036 2.21899 60.0694 2.21899C60.4353 2.21899 60.947 2.57757 61.4418 2.92448C61.9959 3.31295 62.569 3.71458 63.2593 3.89876C63.9735 4.0893 64.7191 4.02524 65.3766 3.96917C65.9646 3.91858 66.5728 3.86666 66.8612 4.03338C67.1607 4.20631 67.4209 4.76431 67.6728 5.30412C67.9494 5.89718 68.2628 6.56924 68.7783 7.08389C69.2939 7.59855 69.9671 7.91143 70.5611 8.18747C71.1017 8.43881 71.6609 8.69872 71.8343 8.99784C72.0011 9.28557 71.9489 9.89268 71.8985 10.4797C71.8422 11.1362 71.7782 11.8806 71.9692 12.5935C72.1535 13.2823 72.5559 13.8543 72.945 14.4076C73.2925 14.9015 73.6518 15.4123 73.6518 15.7776C73.6518 16.1428 73.2925 16.6536 72.945 17.1476C72.5559 17.7007 72.1535 18.2728 71.969 18.9618C71.7783 19.6746 71.8423 20.419 71.8985 21.0753C71.949 21.6625 72.001 22.2693 71.8342 22.5573C71.6609 22.8563 71.1018 23.1162 70.5611 23.3677C69.9671 23.6437 69.2939 23.9566 68.7783 24.4713C68.2628 24.9859 67.9494 25.658 67.6728 26.2509C67.0614 27.5617 66.8241 27.71 65.3769 27.5858C64.7192 27.5295 63.9734 27.4657 63.2594 27.6563C62.5693 27.8404 61.9962 28.2421 61.4418 28.6305C60.947 28.9774 60.4355 29.336 60.0696 29.336C59.7037 29.336 59.1922 28.9774 58.6973 28.6305C58.1431 28.2421 57.57 27.8404 56.8798 27.6564C56.518 27.5598 56.148 27.5286 55.7855 27.5286C55.4325 27.5286 55.0867 27.5582 54.7623 27.586C54.1744 27.6363 53.5664 27.6885 53.278 27.5218C52.9785 27.3489 52.7181 26.7907 52.4662 26.2508C51.8254 24.8771 50.9649 24.0124 49.5778 23.3676C49.0372 23.1162 48.4781 22.8563 48.3048 22.5573C48.138 22.2696 48.1901 21.6626 48.2405 21.0756C48.2656 20.7847 48.2908 20.4762 48.2959 20.1613C48.2962 20.1463 48.2971 20.1315 48.2967 20.1167C48.3004 19.7348 48.2724 19.3439 48.1701 18.9618C47.9856 18.2729 47.5833 17.7009 47.1941 17.1474C46.8466 16.6535 46.4874 16.1428 46.4874 15.7776C46.4874 15.4123 46.8463 14.9015 47.1938 14.4077ZM70.3167 26.0772V56.0667H68.0938V29.3674C68.9176 28.8345 69.326 27.962 69.6873 27.1873C69.8862 26.761 70.0918 26.3231 70.3167 26.0772ZM48.6393 25.3788C48.9349 25.5163 49.2358 25.657 49.4757 25.8049C49.8878 27.0385 50.0991 28.3279 50.0991 29.6445C50.0991 32.6145 49.0239 35.3374 47.2438 37.4497C46.4874 35.1742 44.9025 33.221 42.8114 32.0163C43.3326 31.1581 43.633 30.152 43.633 29.0773V27.3317C43.633 24.1964 41.0779 21.6456 37.9369 21.6456C34.796 21.6456 32.2409 24.1963 32.2409 27.3317V29.0773C32.2409 30.1522 32.5413 31.1581 33.0625 32.0163C30.9714 33.2209 29.3865 35.1742 28.6301 37.4497C26.85 35.3375 25.7747 32.6145 25.7747 29.6445C25.7747 22.9501 31.2305 17.5038 37.9368 17.5038C40.9557 17.5038 43.8164 18.601 46.0488 20.6006C45.9729 21.606 45.8063 22.678 46.3801 23.6684C46.9044 24.5725 47.826 25.0009 48.6393 25.3788ZM34.6241 33.6983C35.5583 34.3675 36.7019 34.7632 37.9369 34.7632C39.172 34.7632 40.3156 34.3675 41.2498 33.6983C43.4277 34.7597 44.9919 36.8361 45.4043 39.2181C43.3415 40.8254 40.7503 41.7868 37.9369 41.7868C35.1235 41.7868 32.5324 40.8255 30.4696 39.2181C30.882 36.8361 32.4462 34.7597 34.6241 33.6983ZM34.4638 29.0773V27.3317C34.4638 25.42 36.0219 23.8646 37.9369 23.8646C39.852 23.8646 41.4101 25.42 41.4101 27.3317V29.0773C41.4101 30.989 39.852 32.5444 37.9369 32.5444C36.0219 32.5444 34.4638 30.989 34.4638 29.0773ZM5.55717 11.9089C5.55717 10.0736 7.05301 8.58038 8.89147 8.58038H46.0943C45.8952 9.31856 45.9765 10.0881 46.0365 10.7994H38.6779C38.0639 10.7994 37.5665 11.296 37.5665 11.9089C37.5665 12.5217 38.0639 13.0183 38.6779 13.0183H45.4547C44.9064 13.8051 44.2643 14.6576 44.2643 15.7774C44.2643 16.1594 44.3407 16.5116 44.4618 16.8411C42.4636 15.8243 40.2391 15.2847 37.9368 15.2847C30.005 15.2847 23.5519 21.7264 23.5519 29.6443C23.5519 37.5705 30.0976 44.0056 37.9368 44.0056C45.892 44.0056 52.3917 37.4506 52.3192 29.5246C53.1734 29.9482 54.1153 29.868 54.9518 29.7964C55.4508 29.7538 55.9674 29.7093 56.3054 29.7997C56.6148 29.8822 57.024 30.1689 57.4196 30.4461C58.1609 30.9657 59.001 31.5544 60.0691 31.5544C61.1373 31.5544 61.9774 30.9657 62.7187 30.4461C63.1143 30.1689 63.5235 29.8821 63.8329 29.7995C64.3237 29.6684 65.2561 29.8192 65.8711 29.8457V56.0667H45.9381C44.5082 56.0667 43.3447 57.2281 43.3447 58.6555V60.6643C43.3447 60.8683 43.1786 61.0341 42.9743 61.0341H32.8996C32.6953 61.0341 32.5291 60.8683 32.5291 60.6643V58.6555C32.5291 57.2281 31.3657 56.0667 29.9358 56.0667H10.0029V13.0183H33.4912C34.1052 13.0183 34.6026 12.5217 34.6026 11.9089C34.6026 11.296 34.1052 10.7994 33.4912 10.7994H9.92881C8.74402 10.7994 7.78004 11.7617 7.78004 12.9444V56.0667H5.55717V11.9089ZM73.651 63.8331C73.651 65.6684 72.1552 67.1616 70.3167 67.1616H5.55717C3.71871 67.1616 2.22287 65.6684 2.22287 63.8331V58.6555C2.22287 58.4515 2.38899 58.2857 2.59335 58.2857H29.9358C30.1402 58.2857 30.3063 58.4515 30.3063 58.6555V60.6643C30.3063 62.0917 31.4697 63.2531 32.8996 63.2531H42.9743C44.4042 63.2531 45.5676 62.0917 45.5676 60.6643V58.6555C45.5676 58.4515 45.7337 58.2857 45.9381 58.2857H73.2805C73.4849 58.2857 73.651 58.4515 73.651 58.6555V63.8331ZM22.4317 49.0399V51.2589C22.4317 52.6863 23.5951 53.8477 25.025 53.8477H31.3002C31.9142 53.8477 32.4116 53.3511 32.4116 52.7382C32.4116 52.1253 31.9142 51.6287 31.3002 51.6287H25.025C24.8207 51.6287 24.6546 51.4629 24.6546 51.2589V49.0399C24.6546 48.8359 24.8207 48.6701 25.025 48.6701H50.8488C51.0532 48.6701 51.2193 48.8359 51.2193 49.0399V51.2589C51.2193 51.4629 51.0532 51.6287 50.8488 51.6287H36.4869C35.8729 51.6287 35.3755 52.1253 35.3755 52.7382C35.3755 53.3511 35.8729 53.8477 36.4869 53.8477H50.8488C52.2787 53.8477 53.4422 52.6863 53.4422 51.2589V49.0399C53.4422 47.6125 52.2787 46.4511 50.8488 46.4511H25.025C23.5951 46.4511 22.4317 47.6125 22.4317 49.0399Z" fill="#9D9863"/>
</svg>
