<svg width="75" height="75" viewBox="0 0 75 75" fill="none" xmlns="http://www.w3.org/2000/svg">
<path d="M71.2324 72.5013V26.2756C71.2324 25.5856 70.673 25.0262 69.983 25.0262H57.4896C56.7996 25.0262 56.2403 25.5856 56.2403 26.2756V72.5013H53.7416V43.7664C53.7416 43.0764 53.1822 42.517 52.4922 42.517H39.9988C39.3088 42.517 38.7494 43.0764 38.7494 43.7664V72.5013H36.2508V31.273C36.2508 30.583 35.6914 30.0236 35.0014 30.0236H22.508C21.818 30.0236 21.2586 30.583 21.2586 31.273V72.5013H18.7599V48.7638C18.7599 48.0738 18.2005 47.5144 17.5106 47.5144H5.01715C4.3272 47.5144 3.76781 48.0738 3.76781 48.7638V72.5013H0.0197754V75H74.9804V72.5013H71.2324ZM16.2612 72.5013H6.2665V50.0131H16.2612V72.5013ZM33.7521 72.5013H23.7573V32.5223H33.7521V72.5013ZM51.2429 72.5013H41.2481V45.0157H51.2429V72.5013ZM68.7337 72.5013H58.7389V27.5249H68.7337V72.5013Z" fill="#9D9863"/>
<path d="M7.81872 33.9853C8.84068 34.6609 10.0388 35.0211 11.2639 35.021C14.7138 35.0208 17.5105 32.224 17.5103 28.774C17.5103 27.5493 17.1502 26.3515 16.475 25.3298L25.3178 16.4857C26.3313 17.164 27.5227 17.5274 28.7423 17.5302C29.11 17.5303 29.477 17.4982 29.8392 17.434C31.0278 17.2256 32.1297 16.675 33.01 15.8498L40.4224 21.5481C39.1852 24.7686 40.793 28.3823 44.0135 29.6194C47.234 30.8566 50.8477 29.2489 52.0849 26.0284C52.8104 24.1397 52.5763 22.0166 51.4566 20.3312L60.2969 11.4908C63.1825 13.4008 67.07 12.6098 68.9797 9.72427C70.8897 6.83875 70.0987 2.95126 67.2132 1.04148C64.3276 -0.868451 60.4402 -0.0774603 58.5304 2.80806C57.1427 4.90461 57.1427 7.62771 58.5304 9.72427L49.69 18.5646C47.214 16.928 43.9282 17.2595 41.8291 19.358C41.8054 19.3817 41.7917 19.4092 41.7692 19.4317L34.4643 13.8171C35.8674 10.6653 34.4499 6.9729 31.2981 5.56973C28.1463 4.16656 24.4539 5.5841 23.0507 8.73588C22.1829 10.6853 22.3701 12.943 23.5475 14.7227L14.7084 23.5631C11.8304 21.6605 7.95505 22.4513 6.05246 25.3294C4.15002 28.2074 4.9407 32.0827 7.81872 33.9853ZM63.7364 2.53804C65.8064 2.53804 67.4844 4.21607 67.4844 6.28607C67.4844 8.35608 65.8064 10.0341 63.7364 10.0341C61.6664 10.0341 59.9884 8.35608 59.9884 6.28607C59.9884 4.21607 61.6664 2.53804 63.7364 2.53804ZM43.594 21.1275C44.2971 20.424 45.2509 20.0287 46.2456 20.0289C48.3156 20.0285 49.9938 21.7064 49.9941 23.7764C49.9942 24.7711 49.599 25.7249 48.8954 26.428C47.4118 27.8421 45.0793 27.8421 43.5957 26.428C42.1315 24.9647 42.1309 22.5916 43.594 21.1275ZM25.6848 9.1338L25.6851 9.13333C26.2533 8.31719 27.124 7.76202 28.1038 7.59164C28.3214 7.55431 28.5416 7.53557 28.7623 7.53542C29.5292 7.5362 30.2772 7.77311 30.9049 8.21381C32.6004 9.40131 33.0124 11.7384 31.8249 13.4339C30.6374 15.1294 28.3003 15.5412 26.6048 14.3539C24.9093 13.1664 24.4973 10.8293 25.6848 9.1338ZM8.61236 26.1249C8.61299 26.1243 8.61346 26.1238 8.61408 26.1232C10.0783 24.6597 12.4516 24.6602 13.915 26.1244C15.3785 27.5886 15.378 29.9619 13.9138 31.4254C12.4302 32.8395 10.0977 32.8395 8.61408 31.4254C7.14985 29.9621 7.14923 27.589 8.61236 26.1249Z" fill="#9D9863"/>
</svg>
